<?xml version="1.0" standalone="no"?>
<!DOCTYPE svg PUBLIC "-//W3C//DTD SVG 20010904//EN"
 "http://www.w3.org/TR/2001/REC-SVG-20010904/DTD/svg10.dtd">
<svg version="1.0" xmlns="http://www.w3.org/2000/svg"
 width="512.000000pt" height="512.000000pt" viewBox="0 0 512.000000 512.000000"
 preserveAspectRatio="xMidYMid meet">

<g transform="translate(0.000000,512.000000) scale(0.100000,-0.100000)"
fill="#000000" stroke="none">
<path d="M1033 4944 c-52 -19 -128 -98 -142 -150 -25 -91 -7 -168 56 -235 92
-98 227 -106 327 -18 24 21 49 52 56 69 l12 30 369 0 369 0 0 -160 0 -160
-935 0 -936 0 -24 -25 -25 -24 0 -1551 0 -1551 25 -24 24 -25 896 0 895 0 0
-240 0 -240 -415 0 -416 0 -24 -25 c-25 -24 -25 -26 -25 -215 0 -189 0 -191
25 -215 l24 -25 1391 0 1391 0 24 25 c25 24 25 26 25 215 0 189 0 191 -25 215
l-24 25 -416 0 -415 0 0 240 0 240 895 0 896 0 24 25 25 24 0 1551 0 1551 -25
24 -24 25 -936 0 -935 0 0 160 0 160 369 0 369 0 12 -30 c7 -17 32 -48 56 -69
97 -85 228 -80 321 11 178 175 0 467 -241 396 -45 -13 -146 -105 -146 -132 0
-14 -46 -16 -425 -16 l-426 0 -24 -25 c-25 -24 -25 -24 -25 -240 l0 -215 -320
0 -320 0 0 215 c0 216 0 216 -25 240 l-24 25 -424 0 -425 0 -12 30 c-17 42
-90 104 -138 118 -51 16 -107 14 -159 -4z m142 -169 c50 -49 15 -135 -55 -135
-41 0 -80 39 -80 80 0 41 39 80 80 80 19 0 40 -9 55 -25z m2880 0 c16 -15 25
-36 25 -55 0 -19 -9 -40 -25 -55 -15 -16 -36 -25 -55 -25 -19 0 -40 9 -55 25
-16 15 -25 36 -25 55 0 19 9 40 25 55 15 16 36 25 55 25 19 0 40 -9 55 -25z
m-1975 -1007 l0 -392 -110 -111 c-136 -139 -139 -150 -56 -241 l55 -59 -85 -5
c-106 -6 -124 -22 -124 -106 l0 -54 -409 0 -409 0 -12 30 c-28 68 -129 130
-212 130 -125 0 -238 -113 -238 -240 0 -127 113 -240 238 -240 83 0 184 62
212 130 l12 30 409 0 409 0 0 -55 c0 -46 4 -60 25 -80 22 -22 32 -25 105 -25
l82 0 -56 -62 c-88 -96 -86 -102 77 -265 163 -163 167 -164 261 -75 l61 57 5
-88 c7 -129 3 -127 240 -127 237 0 233 -2 240 127 l5 88 61 -57 c94 -89 98
-88 261 75 163 163 165 169 77 265 l-56 62 82 0 c73 0 83 3 105 25 21 20 25
34 25 80 l0 55 409 0 409 0 12 -30 c7 -17 32 -48 56 -69 97 -85 232 -80 322
12 95 97 95 241 -1 335 -67 66 -151 86 -241 60 -45 -13 -146 -105 -146 -132 0
-14 -45 -16 -410 -16 l-410 0 0 54 c0 84 -18 100 -124 106 l-85 5 55 59 c83
91 80 102 -56 241 l-110 111 0 392 0 392 880 0 880 0 0 -1280 0 -1280 -2240 0
-2240 0 0 1280 0 1280 880 0 880 0 0 -392z m800 0 l0 -392 -32 -33 c-18 -18
-36 -33 -40 -33 -4 0 -8 36 -8 80 0 73 -3 83 -25 105 -24 25 -26 25 -215 25
-189 0 -191 0 -215 -25 -22 -22 -25 -32 -25 -105 0 -44 -3 -80 -7 -80 -4 0
-22 14 -40 32 l-33 32 0 393 0 393 320 0 320 0 0 -392z m-240 -472 c0 -82 17
-104 109 -140 84 -33 99 -30 161 30 l46 44 54 -55 53 -54 -41 -45 c-56 -61
-59 -78 -23 -166 38 -96 55 -110 137 -110 l64 0 0 -80 0 -80 -64 0 c-53 0 -69
-4 -90 -22 -25 -23 -76 -136 -76 -170 0 -11 22 -43 50 -72 l49 -52 -52 -52
c-29 -29 -57 -52 -62 -52 -5 0 -28 19 -52 42 -51 50 -81 53 -166 16 -89 -39
-97 -50 -97 -130 l0 -68 -80 0 -80 0 0 64 c0 53 -4 69 -22 90 -25 27 -137 76
-174 76 -12 0 -45 -21 -74 -47 l-52 -46 -51 51 -51 51 41 44 c58 63 60 75 21
169 -38 92 -59 108 -148 108 l-50 0 0 80 0 80 64 0 c82 0 104 17 140 109 33
84 30 99 -30 161 l-44 46 54 53 55 54 51 -46 c29 -26 62 -47 74 -47 37 0 149
49 174 76 18 21 22 37 22 90 l0 64 80 0 80 0 0 -64z m-1865 -521 c50 -49 15
-135 -55 -135 -41 0 -80 39 -80 80 0 41 39 80 80 80 19 0 40 -9 55 -25z m3680
0 c16 -15 25 -36 25 -55 0 -19 -9 -40 -25 -55 -15 -16 -36 -25 -55 -25 -19 0
-40 9 -55 25 -16 15 -25 36 -25 55 0 19 9 40 25 55 15 16 36 25 55 25 19 0 40
-9 55 -25z m345 -1415 l0 -80 -2240 0 -2240 0 0 80 0 80 2240 0 2240 0 0 -80z
m-1840 -480 l0 -240 -400 0 -400 0 0 240 0 240 400 0 400 0 0 -240z m880 -480
l0 -80 -1280 0 -1280 0 0 80 0 80 1280 0 1280 0 0 -80z"/>
<path d="M505 3975 c-16 -15 -25 -36 -25 -55 0 -19 9 -40 25 -55 24 -25 24
-25 240 -25 l215 0 0 -335 0 -336 25 -24 24 -25 271 0 271 0 24 25 c33 32 33
78 0 110 -24 25 -24 25 -240 25 l-215 0 0 335 0 336 -25 24 -24 25 -271 0
-271 0 -24 -25z"/>
<path d="M4025 3975 l-25 -24 0 -336 0 -335 -215 0 c-216 0 -216 0 -240 -25
-16 -15 -25 -36 -25 -55 0 -19 9 -40 25 -55 l24 -25 271 0 271 0 24 25 25 24
0 336 0 335 215 0 c216 0 216 0 240 25 16 15 25 36 25 55 0 19 -9 40 -25 55
l-24 25 -271 0 -271 0 -24 -25z"/>
<path d="M2460 3024 c-142 -52 -229 -183 -218 -327 26 -318 443 -407 597 -127
33 60 36 71 36 150 0 78 -3 91 -34 148 -58 106 -144 161 -265 168 -50 3 -84
-1 -116 -12z m163 -158 c103 -43 128 -177 48 -257 -65 -65 -157 -65 -222 0
-124 123 13 325 174 257z"/>
</g>
</svg>
